<?xml version="1.0" encoding="UTF-8" standalone="no"?><!DOCTYPE svg PUBLIC "-//W3C//DTD SVG 1.1//EN" "http://www.w3.org/Graphics/SVG/1.1/DTD/svg11.dtd"><svg width="100%" height="100%" viewBox="0 0 590 362" version="1.1" xmlns="http://www.w3.org/2000/svg" xmlns:xlink="http://www.w3.org/1999/xlink" xml:space="preserve" xmlns:serif="http://www.serif.com/" style="fill-rule:evenodd;clip-rule:evenodd;stroke-linejoin:round;stroke-miterlimit:2;"><path d="M291.53,361.239c-1.947,0 -3.88,-0.51 -5.587,-1.493l-17.783,-10.528c-2.656,-1.485 -1.36,-2.011 -0.484,-2.313c3.542,-1.24 4.26,-1.52 8.04,-3.667c0.398,-0.227 0.918,-0.147 1.324,0.093l13.662,8.107c0.493,0.267 1.193,0.267 1.65,0l53.267,-30.747c0.493,-0.28 0.813,-0.853 0.813,-1.44l0,-61.466c0,-0.613 -0.32,-1.16 -0.824,-1.467l-53.245,-30.72c-0.493,-0.293 -1.147,-0.293 -1.64,0l-53.235,30.72c-0.516,0.294 -0.844,0.867 -0.844,1.454l0,61.466c0,0.587 0.32,1.147 0.827,1.427l14.587,8.426c7.92,3.96 12.76,-0.706 12.76,-5.4l0,-60.666c0,-0.867 0.68,-1.533 1.546,-1.533l6.747,0c0.84,0 1.533,0.666 1.533,1.533l0,60.693c0,10.56 -5.76,16.627 -15.773,16.627c-3.08,0 -5.507,0 -12.28,-3.334l-13.973,-8.053c-3.454,-2 -5.587,-5.733 -5.587,-9.72l0,-61.466c0,-4 2.133,-7.734 5.587,-9.707l53.32,-30.76c3.373,-1.907 7.853,-1.907 11.199,0l53.254,30.773c3.44,1.987 5.586,5.707 5.586,9.707l0,61.466c0,3.987 -2.146,7.707 -5.586,9.707l-53.254,30.76c-1.706,0.987 -3.639,1.493 -5.613,1.493" style="fill:#689f63;fill-rule:nonzero;"/><path d="M307.983,318.885c-23.307,0 -28.193,-10.699 -28.193,-19.672c0,-0.854 0.688,-1.534 1.542,-1.534l6.88,0c0.76,0 1.4,0.554 1.52,1.304c1.04,7.011 4.134,10.547 18.227,10.547c11.226,0 16,-2.536 16,-8.489c0,-3.427 -1.36,-5.974 -18.8,-7.68c-14.587,-1.44 -23.6,-4.654 -23.6,-16.32c0,-10.747 9.067,-17.147 24.253,-17.147c17.053,0 25.507,5.92 26.573,18.64c0.04,0.44 -0.12,0.867 -0.413,1.187c-0.293,0.306 -0.707,0.493 -1.133,0.493l-6.92,0c-0.72,0 -1.347,-0.507 -1.494,-1.2c-1.666,-7.373 -5.693,-9.733 -16.64,-9.733c-12.253,0 -13.679,4.266 -13.679,7.466c0,3.88 1.68,5.014 18.213,7.2c16.373,2.174 24.146,5.24 24.146,16.747c0,11.6 -9.68,18.253 -26.56,18.253m64.88,-65.186l1.787,0c1.467,0 1.747,-1.027 1.747,-1.627c0,-1.573 -1.08,-1.573 -1.68,-1.573l-1.84,0l-0.014,3.2Zm-2.173,-5.04l3.96,0c1.36,0 4.027,0 4.027,3.04c0,2.12 -1.36,2.56 -2.174,2.827c1.587,0.106 1.694,1.146 1.907,2.613c0.107,0.92 0.28,2.507 0.6,3.04l-2.44,0c-0.067,-0.533 -0.44,-3.467 -0.44,-3.627c-0.16,-0.653 -0.387,-0.973 -1.2,-0.973l-2.013,0l0,4.613l-2.227,0l0,-11.533Zm-4.76,5.733c0,4.774 3.853,8.64 8.587,8.64c4.773,0 8.626,-3.946 8.626,-8.64c0,-4.786 -3.906,-8.586 -8.64,-8.586c-4.666,0 -8.586,3.746 -8.586,8.573m18.88,0.04c0,5.653 -4.627,10.267 -10.267,10.267c-5.6,0 -10.267,-4.56 -10.267,-10.267c0,-5.813 4.774,-10.267 10.267,-10.267c5.533,0 10.253,4.467 10.253,10.267" style="fill:#689f63;fill-rule:nonzero;"/><path d="M126.582,120.733c0,-2.453 -1.294,-4.707 -3.411,-5.927l-56.474,-32.493c-0.954,-0.56 -2.022,-0.853 -3.104,-0.893l-0.584,0c-1.083,0.04 -2.151,0.333 -3.12,0.893l-56.472,32.493c-2.104,1.227 -3.416,3.48 -3.416,5.934l0.124,87.52c0,1.213 0.626,2.346 1.693,2.946c1.04,0.64 2.347,0.64 3.387,0l33.573,-19.226c2.12,-1.262 3.413,-3.491 3.413,-5.92l0,-40.887c0,-2.44 1.294,-4.693 3.407,-5.907l14.293,-8.232c1.062,-0.613 2.227,-0.917 3.414,-0.917c1.168,0 2.36,0.301 3.392,0.916l14.286,8.229c2.115,1.214 3.414,3.467 3.414,5.907l0,40.884c0,2.427 1.31,4.667 3.42,5.92l33.551,19.213c1.054,0.627 2.364,0.627 3.414,0c1.034,-0.6 1.69,-1.733 1.69,-2.946l0.11,-87.507Zm266.49,45.568c0,0.609 -0.324,1.173 -0.853,1.475l-19.398,11.181c-0.526,0.303 -1.177,0.303 -1.702,0l-19.4,-11.181c-0.534,-0.303 -0.854,-0.867 -0.854,-1.475l0,-22.395c0,-0.61 0.32,-1.173 0.84,-1.48l19.387,-11.2c0.533,-0.306 1.187,-0.306 1.72,0l19.4,11.2c0.533,0.307 0.853,0.87 0.853,1.48l0.007,22.395Zm5.24,-165.869c-1.059,-0.589 -2.347,-0.573 -3.392,0.036c-1.04,0.613 -1.683,1.733 -1.683,2.947l0,86.666c0,0.853 -0.453,1.64 -1.192,2.067c-0.733,0.426 -1.646,0.426 -2.386,0l-14.147,-8.148c-2.107,-1.219 -4.701,-1.219 -6.816,0l-56.493,32.604c-2.111,1.213 -3.414,3.466 -3.414,5.893l0,65.227c0,2.44 1.303,4.68 3.414,5.906l56.493,32.627c2.109,1.213 4.707,1.213 6.823,0l56.493,-32.64c2.107,-1.227 3.413,-3.467 3.413,-5.907l0,-162.559c0,-2.475 -1.346,-4.751 -3.506,-5.96l-33.607,-18.759Zm188.124,142.885c2.098,-1.219 3.39,-3.469 3.39,-5.896l0,-15.808c0,-2.432 -1.293,-4.676 -3.396,-5.9l-56.133,-32.586c-2.12,-1.227 -4.72,-1.227 -6.84,0l-56.48,32.599c-2.12,1.227 -3.413,3.467 -3.413,5.907l0,65.2c0,2.453 1.32,4.72 3.44,5.933l56.12,31.987c2.066,1.187 4.6,1.2 6.693,0.04l33.947,-18.867c1.066,-0.6 1.746,-1.733 1.746,-2.96c0,-1.226 -0.653,-2.373 -1.72,-2.973l-56.826,-32.613c-1.067,-0.6 -1.72,-1.734 -1.72,-2.947l0,-20.453c0,-1.222 0.64,-2.347 1.706,-2.955l17.68,-10.2c1.054,-0.613 2.347,-0.613 3.4,0l17.694,10.2c1.053,0.6 1.706,1.733 1.706,2.947l0,16.08c0,1.213 0.654,2.346 1.707,2.96c1.053,0.6 2.36,0.6 3.413,-0.014l33.886,-19.681Z" style="fill:#333;"/><path d="M526.05,140.266c0.4,-0.236 0.902,-0.236 1.307,0l10.84,6.254c0.405,0.234 0.653,0.666 0.653,1.133l0,12.52c0,0.467 -0.248,0.899 -0.653,1.133l-10.84,6.254c-0.405,0.236 -0.907,0.236 -1.307,0l-10.833,-6.254c-0.413,-0.234 -0.667,-0.666 -0.667,-1.133l0,-12.52c0,-0.467 0.24,-0.899 0.654,-1.133l10.846,-6.254Z" style="fill:#689f63;"/><g><clipPath id="_clip1"><path d="M214.299,83.452l-56.173,32.422c-2.104,1.214 -3.395,3.454 -3.395,5.875l0,64.891c0,2.422 1.291,4.661 3.395,5.874l56.177,32.448c2.1,1.21 4.689,1.21 6.787,0l56.168,-32.448c2.093,-1.213 3.386,-3.453 3.386,-5.874l0,-64.891c0,-2.421 -1.293,-4.661 -3.4,-5.875l-56.16,-32.422c-1.053,-0.604 -2.226,-0.907 -3.4,-0.907c-1.173,0 -2.346,0.303 -3.4,0.907"/></clipPath><g clip-path="url(#_clip1)"><path d="M337.409,110.369l-158.286,-77.586l-81.16,165.565l158.283,77.59l81.163,-165.569Z" style="fill:url(#_Linear2);fill-rule:nonzero;"/></g></g><g><clipPath id="_clip3"><path d="M156.123,190.76c0.537,0.697 1.209,1.301 2,1.754l48.187,27.834l8.026,4.613c1.2,0.693 2.568,0.987 3.912,0.887c0.448,-0.036 0.896,-0.12 1.334,-0.244l59.245,-108.48c-0.453,-0.494 -0.984,-0.907 -1.579,-1.254l-36.781,-21.24l-19.443,-11.186c-0.552,-0.32 -1.15,-0.547 -1.76,-0.707l-63.141,108.023Z"/></clipPath><g clip-path="url(#_clip3)"><path d="M87.686,133.317l111.766,151.27l147.813,-109.207l-111.773,-151.267l-147.806,109.204Z" style="fill:url(#_Linear4);fill-rule:nonzero;"/></g></g><g><clipPath id="_clip5"><path d="M217.014,82.583c-0.943,0.093 -1.864,0.386 -2.714,0.869l-56.013,32.329l60.4,110.013c0.84,-0.12 1.667,-0.4 2.413,-0.832l56.174,-32.448c1.733,-1.005 2.92,-2.706 3.28,-4.634l-61.574,-105.187c-0.453,-0.089 -0.906,-0.136 -1.373,-0.136c-0.187,0 -0.373,0.01 -0.56,0.027"/></clipPath><g clip-path="url(#_clip5)"><rect x="158.286" y="82.557" width="122.244" height="143.24" style="fill:url(#_Linear6);fill-rule:nonzero;"/></g></g><defs><linearGradient id="_Linear2" x1="0" y1="0" x2="1" y2="0" gradientUnits="userSpaceOnUse" gradientTransform="matrix(-81.1542,165.554,-165.554,-81.1542,-19269,-9500.68)"><stop offset="0" style="stop-color:#3e863d;stop-opacity:1"/><stop offset="0.3" style="stop-color:#3e863d;stop-opacity:1"/><stop offset="0.5" style="stop-color:#55934f;stop-opacity:1"/><stop offset="0.8" style="stop-color:#5aad45;stop-opacity:1"/><stop offset="1" style="stop-color:#5aad45;stop-opacity:1"/></linearGradient><linearGradient id="_Linear4" x1="0" y1="0" x2="1" y2="0" gradientUnits="userSpaceOnUse" gradientTransform="matrix(147.819,-109.221,109.221,147.819,19305.4,26142.3)"><stop offset="0" style="stop-color:#3e863d;stop-opacity:1"/><stop offset="0.57" style="stop-color:#3e863d;stop-opacity:1"/><stop offset="0.72" style="stop-color:#619857;stop-opacity:1"/><stop offset="1" style="stop-color:#76ac64;stop-opacity:1"/></linearGradient><linearGradient id="_Linear6" x1="0" y1="0" x2="1" y2="0" gradientUnits="userSpaceOnUse" gradientTransform="matrix(122.226,0,0,122.226,158.396,29500.5)"><stop offset="0" style="stop-color:#6bbf47;stop-opacity:1"/><stop offset="0.16" style="stop-color:#6bbf47;stop-opacity:1"/><stop offset="0.38" style="stop-color:#79b461;stop-opacity:1"/><stop offset="0.47" style="stop-color:#75ac64;stop-opacity:1"/><stop offset="0.7" style="stop-color:#659e5a;stop-opacity:1"/><stop offset="0.9" style="stop-color:#3e863d;stop-opacity:1"/><stop offset="1" style="stop-color:#3e863d;stop-opacity:1"/></linearGradient></defs></svg>